<svg width="450" height="450" viewBox="0 0 450 450" fill="none" xmlns="http://www.w3.org/2000/svg">
<path d="M450 67.5C450 30.2208 419.779 0 382.5 0H67.5C30.2208 0 1.71661e-05 30.2208 1.71661e-05 67.5V382.5C1.71661e-05 419.779 30.2208 450 67.5 450H382.5C419.779 450 450 419.779 450 382.5V67.5Z" fill="black"/>
<path d="M225 165.945C213.444 165.945 204.512 160.524 188.994 148.843C154.951 123.212 106.214 109 51.6667 109H40V166.366H51.6667C87.3079 166.366 119.085 173.774 141.517 185.365C164.456 197.214 174.814 211.71 174.814 225C174.814 238.29 164.456 252.786 141.517 264.635C119.085 276.226 87.3079 283.634 51.6667 283.634H40V341H51.6667C106.214 341 154.951 326.788 188.994 301.157C203.047 290.58 213.828 284.638 225 284.075C236.172 284.638 246.953 290.58 261.006 301.157C295.049 326.788 343.786 341 398.333 341H410V283.634H398.333C362.692 283.634 330.918 276.226 308.483 264.635C285.544 252.786 275.186 238.29 275.186 225C275.186 211.71 285.544 197.214 308.483 185.365C330.918 173.774 362.692 166.366 398.333 166.366H410V109H398.333C343.786 109 295.049 123.212 261.006 148.843C245.488 160.524 236.556 165.945 225 165.945Z" fill="white"/>
</svg>
