<svg width="450" height="450" viewBox="0 0 450 450" fill="none" xmlns="http://www.w3.org/2000/svg">
<path d="M450 67.5C450 30.2208 419.779 0 382.5 0H67.5C30.2208 0 1.71661e-05 30.2208 1.71661e-05 67.5V382.5C1.71661e-05 419.779 30.2208 450 67.5 450H382.5C419.779 450 450 419.779 450 382.5V67.5Z" fill="black"/>
<path d="M225 171.545C214.6 171.545 206.561 166.638 192.595 156.064C161.956 132.864 118.093 120 69 120H58.5V171.926H69C101.077 171.926 129.677 178.632 149.865 189.123C170.511 199.849 179.833 212.971 179.833 225C179.833 237.029 170.511 250.151 149.865 260.877C129.677 271.368 101.077 278.074 69 278.074H58.5V330H69C118.093 330 161.956 317.136 192.595 293.936C205.242 284.361 214.945 278.982 225 278.473C235.055 278.982 244.758 284.361 257.405 293.936C288.044 317.136 331.907 330 381 330H391.5V278.074H381C348.923 278.074 320.326 271.368 300.135 260.877C279.489 250.151 270.167 237.029 270.167 225C270.167 212.971 279.489 199.849 300.135 189.123C320.326 178.632 348.923 171.926 381 171.926H391.5V120H381C331.907 120 288.044 132.864 257.405 156.064C243.439 166.638 235.4 171.545 225 171.545Z" fill="white"/>
</svg>
