<svg width="360" height="110" viewBox="0 0 360 110" fill="none" xmlns="http://www.w3.org/2000/svg">
<path fill-rule="evenodd" clip-rule="evenodd" d="M0 55C0 38.5387 11.4523 24.6875 27.6943 15.2305C44.0635 5.69955 66.211 0 90 0C117.361 0 141.278 7.24606 157.647 19.75C165.6 25.825 171.734 30 180 30C188.266 30 194.4 25.825 202.353 19.75C218.722 7.24606 242.639 0 270 0C293.789 0 315.938 5.69945 332.307 15.2305C348.548 24.6875 360 38.5388 360 55C360 71.4612 348.548 85.3125 332.307 94.7695C315.938 104.301 293.789 110 270 110C242.639 110 218.722 102.754 202.353 90.25C194.86 84.5265 187.902 80.3051 180 80.0039C172.098 80.3051 165.14 84.5265 157.647 90.25C141.278 102.754 117.361 110 90 110C66.211 110 44.0635 104.3 27.6943 94.7695C11.4523 85.3125 0 71.4613 0 55ZM160 55C160 75.813 128.524 92 90 92C51.4751 92 20 75.958 20 55.1455C20 34.3325 51.4751 18 90 18C128.524 18 160 34.187 160 55ZM200 55C200 75.813 231.476 92 270 92C308.524 92 340 75.958 340 55.1455C340 34.3325 308.524 18 270 18C231.476 18 200 34.187 200 55Z" fill="white"/>
</svg>
